<?xml version="1.0" encoding="UTF-8" standalone="no"?>
<!DOCTYPE svg PUBLIC "-//W3C//DTD SVG 1.1//EN"
 "http://www.w3.org/Graphics/SVG/1.1/DTD/svg11.dtd">
<!-- Generated by graphviz version 2.38.0 (20140413.2041)
 -->
<!-- Title: controllers_diagram Pages: 1 -->
<svg width="1070pt" height="710pt"
 viewBox="0.00 0.00 1069.53 710.44" xmlns="http://www.w3.org/2000/svg" xmlns:xlink="http://www.w3.org/1999/xlink">
<g id="graph0" class="graph" transform="scale(1 1) rotate(0) translate(372.242 384.82)">
<title>controllers_diagram</title>
<polygon fill="white" stroke="none" points="-372.242,325.616 -372.242,-384.82 697.292,-384.82 697.292,325.616 -372.242,325.616"/>
<!-- _diagram_info -->
<g id="node1" class="node"><title>_diagram_info</title>
<text text-anchor="start" x="192.312" y="32.9" font-family="Times,serif" font-size="13.00">Controllers diagram</text>
<text text-anchor="start" x="192.312" y="45.9" font-family="Times,serif" font-size="13.00">Date: Sep 18 2014 &#45; 11:22</text>
<text text-anchor="start" x="192.312" y="58.9" font-family="Times,serif" font-size="13.00">Migration version: 20140915171704</text>
<text text-anchor="start" x="192.312" y="71.9" font-family="Times,serif" font-size="13.00">Generated by RailRoady 1.1.1</text>
<text text-anchor="start" x="192.312" y="84.9" font-family="Times,serif" font-size="13.00">http://railroady.prestonlee.com</text>
</g>
<!-- ApplicationController -->
<g id="node2" class="node"><title>ApplicationController</title>
<path fill="none" stroke="black" d="M-106.675,117.069C-106.675,117.069 71.9595,117.069 71.9595,117.069 77.9595,117.069 83.9595,111.069 83.9595,105.069 83.9595,105.069 83.9595,11.0686 83.9595,11.0686 83.9595,5.06861 77.9595,-0.93139 71.9595,-0.93139 71.9595,-0.93139 -106.675,-0.93139 -106.675,-0.93139 -112.675,-0.93139 -118.675,5.06861 -118.675,11.0686 -118.675,11.0686 -118.675,105.069 -118.675,105.069 -118.675,111.069 -112.675,117.069 -106.675,117.069"/>
<text text-anchor="middle" x="-17.3579" y="14.2686" font-family="Times,serif" font-size="14.00">ApplicationController</text>
<polyline fill="none" stroke="black" points="-118.675,21.0686 83.9595,21.0686 "/>
<text text-anchor="start" x="-110.675" y="36.2686" font-family="Times,serif" font-size="14.00">_one_time_conditions_valid_72?</text>
<text text-anchor="start" x="-110.675" y="50.2686" font-family="Times,serif" font-size="14.00">_one_time_conditions_valid_74?</text>
<text text-anchor="start" x="-110.675" y="64.2686" font-family="Times,serif" font-size="14.00">after_sign_in_path_for</text>
<polyline fill="none" stroke="black" points="-118.675,71.0686 83.9595,71.0686 "/>
<polyline fill="none" stroke="black" points="-118.675,95.0686 83.9595,95.0686 "/>
<text text-anchor="start" x="-110.675" y="110.269" font-family="Times,serif" font-size="14.00">_layout</text>
</g>
<!-- LandingController -->
<g id="node3" class="node"><title>LandingController</title>
<path fill="none" stroke="black" d="M132.924,270.735C132.924,270.735 229.124,270.735 229.124,270.735 235.124,270.735 241.124,264.735 241.124,258.735 241.124,258.735 241.124,192.735 241.124,192.735 241.124,186.735 235.124,180.735 229.124,180.735 229.124,180.735 132.924,180.735 132.924,180.735 126.924,180.735 120.924,186.735 120.924,192.735 120.924,192.735 120.924,258.735 120.924,258.735 120.924,264.735 126.924,270.735 132.924,270.735"/>
<text text-anchor="middle" x="181.024" y="195.935" font-family="Times,serif" font-size="14.00">LandingController</text>
<polyline fill="none" stroke="black" points="120.924,202.735 241.124,202.735 "/>
<text text-anchor="start" x="128.924" y="217.935" font-family="Times,serif" font-size="14.00">index</text>
<polyline fill="none" stroke="black" points="120.924,224.735 241.124,224.735 "/>
<polyline fill="none" stroke="black" points="120.924,248.735 241.124,248.735 "/>
<text text-anchor="start" x="128.924" y="263.935" font-family="Times,serif" font-size="14.00">_layout</text>
</g>
<!-- ApplicationController&#45;&gt;LandingController -->
<g id="edge1" class="edge"><title>ApplicationController&#45;&gt;LandingController</title>
<path fill="none" stroke="black" d="M52.5842,117.181C77.2375,138.018 104.538,161.091 127.608,180.589"/>
</g>
<!-- LeaguesController -->
<g id="node4" class="node"><title>LeaguesController</title>
<path fill="none" stroke="black" d="M-305.723,321.116C-305.723,321.116 -127.088,321.116 -127.088,321.116 -121.088,321.116 -115.088,315.116 -115.088,309.116 -115.088,309.116 -115.088,145.116 -115.088,145.116 -115.088,139.116 -121.088,133.116 -127.088,133.116 -127.088,133.116 -305.723,133.116 -305.723,133.116 -311.723,133.116 -317.723,139.116 -317.723,145.116 -317.723,145.116 -317.723,309.116 -317.723,309.116 -317.723,315.116 -311.723,321.116 -305.723,321.116"/>
<text text-anchor="middle" x="-216.405" y="148.316" font-family="Times,serif" font-size="14.00">LeaguesController</text>
<polyline fill="none" stroke="black" points="-317.723,155.116 -115.088,155.116 "/>
<text text-anchor="start" x="-309.723" y="170.316" font-family="Times,serif" font-size="14.00">_one_time_conditions_valid_90?</text>
<text text-anchor="start" x="-309.723" y="184.316" font-family="Times,serif" font-size="14.00">create</text>
<text text-anchor="start" x="-309.723" y="198.316" font-family="Times,serif" font-size="14.00">destroy</text>
<text text-anchor="start" x="-309.723" y="212.316" font-family="Times,serif" font-size="14.00">edit</text>
<text text-anchor="start" x="-309.723" y="226.316" font-family="Times,serif" font-size="14.00">index</text>
<text text-anchor="start" x="-309.723" y="240.316" font-family="Times,serif" font-size="14.00">new</text>
<text text-anchor="start" x="-309.723" y="254.316" font-family="Times,serif" font-size="14.00">show</text>
<text text-anchor="start" x="-309.723" y="268.316" font-family="Times,serif" font-size="14.00">update</text>
<polyline fill="none" stroke="black" points="-317.723,275.116 -115.088,275.116 "/>
<polyline fill="none" stroke="black" points="-317.723,299.116 -115.088,299.116 "/>
<text text-anchor="start" x="-309.723" y="314.316" font-family="Times,serif" font-size="14.00">_layout</text>
</g>
<!-- ApplicationController&#45;&gt;LeaguesController -->
<g id="edge2" class="edge"><title>ApplicationController&#45;&gt;LeaguesController</title>
<path fill="none" stroke="black" d="M-86.9749,117.193C-96.0557,124.905 -105.503,132.928 -114.973,140.971"/>
</g>
<!-- StaticController -->
<g id="node6" class="node"><title>StaticController</title>
<path fill="none" stroke="black" d="M-356.242,-74.3526C-356.242,-74.3526 -170.608,-74.3526 -170.608,-74.3526 -164.608,-74.3526 -158.608,-80.3526 -158.608,-86.3526 -158.608,-86.3526 -158.608,-166.353 -158.608,-166.353 -158.608,-172.353 -164.608,-178.353 -170.608,-178.353 -170.608,-178.353 -356.242,-178.353 -356.242,-178.353 -362.242,-178.353 -368.242,-172.353 -368.242,-166.353 -368.242,-166.353 -368.242,-86.3526 -368.242,-86.3526 -368.242,-80.3526 -362.242,-74.3526 -356.242,-74.3526"/>
<text text-anchor="middle" x="-263.425" y="-163.153" font-family="Times,serif" font-size="14.00">StaticController</text>
<polyline fill="none" stroke="black" points="-368.242,-156.353 -158.608,-156.353 "/>
<text text-anchor="start" x="-360.242" y="-141.153" font-family="Times,serif" font-size="14.00">_one_time_conditions_valid_102?</text>
<text text-anchor="start" x="-360.242" y="-127.153" font-family="Times,serif" font-size="14.00">index</text>
<polyline fill="none" stroke="black" points="-368.242,-120.353 -158.608,-120.353 "/>
<polyline fill="none" stroke="black" points="-368.242,-96.3526 -158.608,-96.3526 "/>
<text text-anchor="start" x="-360.242" y="-81.1526" font-family="Times,serif" font-size="14.00">_layout</text>
</g>
<!-- ApplicationController&#45;&gt;StaticController -->
<g id="edge4" class="edge"><title>ApplicationController&#45;&gt;StaticController</title>
<path fill="none" stroke="black" d="M-96.2304,-1.04439C-127.578,-24.5389 -163.336,-51.3386 -193.716,-74.1074"/>
</g>
<!-- TeamMatchesController -->
<g id="node7" class="node"><title>TeamMatchesController</title>
<path fill="none" stroke="black" d="M130.357,-50.6414C130.357,-50.6414 315.992,-50.6414 315.992,-50.6414 321.992,-50.6414 327.992,-56.6414 327.992,-62.6414 327.992,-62.6414 327.992,-198.641 327.992,-198.641 327.992,-204.641 321.992,-210.641 315.992,-210.641 315.992,-210.641 130.357,-210.641 130.357,-210.641 124.357,-210.641 118.357,-204.641 118.357,-198.641 118.357,-198.641 118.357,-62.6414 118.357,-62.6414 118.357,-56.6414 124.357,-50.6414 130.357,-50.6414"/>
<text text-anchor="middle" x="223.175" y="-195.441" font-family="Times,serif" font-size="14.00">TeamMatchesController</text>
<polyline fill="none" stroke="black" points="118.357,-188.641 327.992,-188.641 "/>
<text text-anchor="start" x="126.357" y="-173.441" font-family="Times,serif" font-size="14.00">_one_time_conditions_valid_108?</text>
<text text-anchor="start" x="126.357" y="-159.441" font-family="Times,serif" font-size="14.00">create</text>
<text text-anchor="start" x="126.357" y="-145.441" font-family="Times,serif" font-size="14.00">destroy</text>
<text text-anchor="start" x="126.357" y="-131.441" font-family="Times,serif" font-size="14.00">edit</text>
<text text-anchor="start" x="126.357" y="-117.441" font-family="Times,serif" font-size="14.00">update</text>
<text text-anchor="start" x="126.357" y="-103.441" font-family="Times,serif" font-size="14.00">update_score</text>
<polyline fill="none" stroke="black" points="118.357,-96.6414 327.992,-96.6414 "/>
<polyline fill="none" stroke="black" points="118.357,-72.6414 327.992,-72.6414 "/>
<text text-anchor="start" x="126.357" y="-57.4414" font-family="Times,serif" font-size="14.00">_layout</text>
</g>
<!-- ApplicationController&#45;&gt;TeamMatchesController -->
<g id="edge5" class="edge"><title>ApplicationController&#45;&gt;TeamMatchesController</title>
<path fill="none" stroke="black" d="M58.0882,-1.12264C78.0654,-16.7958 99.9681,-33.9795 121.103,-50.5611"/>
</g>
<!-- TeamsController -->
<g id="node8" class="node"><title>TeamsController</title>
<path fill="none" stroke="black" d="M-116.546,-103.458C-116.546,-103.458 69.0888,-103.458 69.0888,-103.458 75.0888,-103.458 81.0888,-109.458 81.0888,-115.458 81.0888,-115.458 81.0888,-293.458 81.0888,-293.458 81.0888,-299.458 75.0888,-305.458 69.0888,-305.458 69.0888,-305.458 -116.546,-305.458 -116.546,-305.458 -122.546,-305.458 -128.546,-299.458 -128.546,-293.458 -128.546,-293.458 -128.546,-115.458 -128.546,-115.458 -128.546,-109.458 -122.546,-103.458 -116.546,-103.458"/>
<text text-anchor="middle" x="-23.7286" y="-290.258" font-family="Times,serif" font-size="14.00">TeamsController</text>
<polyline fill="none" stroke="black" points="-128.546,-283.458 81.0888,-283.458 "/>
<text text-anchor="start" x="-120.546" y="-268.258" font-family="Times,serif" font-size="14.00">_one_time_conditions_valid_190?</text>
<text text-anchor="start" x="-120.546" y="-254.258" font-family="Times,serif" font-size="14.00">create</text>
<text text-anchor="start" x="-120.546" y="-240.258" font-family="Times,serif" font-size="14.00">destroy</text>
<text text-anchor="start" x="-120.546" y="-226.258" font-family="Times,serif" font-size="14.00">edit</text>
<text text-anchor="start" x="-120.546" y="-212.258" font-family="Times,serif" font-size="14.00">index</text>
<text text-anchor="start" x="-120.546" y="-198.258" font-family="Times,serif" font-size="14.00">join_team</text>
<text text-anchor="start" x="-120.546" y="-184.258" font-family="Times,serif" font-size="14.00">new</text>
<text text-anchor="start" x="-120.546" y="-170.258" font-family="Times,serif" font-size="14.00">show</text>
<text text-anchor="start" x="-120.546" y="-156.258" font-family="Times,serif" font-size="14.00">update</text>
<polyline fill="none" stroke="black" points="-128.546,-149.458 81.0888,-149.458 "/>
<polyline fill="none" stroke="black" points="-128.546,-125.458 81.0888,-125.458 "/>
<text text-anchor="start" x="-120.546" y="-110.258" font-family="Times,serif" font-size="14.00">_layout</text>
</g>
<!-- ApplicationController&#45;&gt;TeamsController -->
<g id="edge6" class="edge"><title>ApplicationController&#45;&gt;TeamsController</title>
<path fill="none" stroke="black" d="M-18.7955,-1.17477C-19.5277,-31.345 -20.4382,-68.8673 -21.277,-103.432"/>
</g>
<!-- RegistrationsController -->
<g id="node5" class="node"><title>RegistrationsController</title>
<path fill="none" stroke="black" d="M287.691,-276.32C287.691,-276.32 411.118,-276.32 411.118,-276.32 417.118,-276.32 423.118,-282.32 423.118,-288.32 423.118,-288.32 423.118,-368.32 423.118,-368.32 423.118,-374.32 417.118,-380.32 411.118,-380.32 411.118,-380.32 287.691,-380.32 287.691,-380.32 281.691,-380.32 275.691,-374.32 275.691,-368.32 275.691,-368.32 275.691,-288.32 275.691,-288.32 275.691,-282.32 281.691,-276.32 287.691,-276.32"/>
<text text-anchor="middle" x="349.404" y="-365.12" font-family="Times,serif" font-size="14.00">RegistrationsController</text>
<polyline fill="none" stroke="black" points="275.691,-358.32 423.118,-358.32 "/>
<text text-anchor="start" x="283.691" y="-343.12" font-family="Times,serif" font-size="14.00">after_update_path_for</text>
<text text-anchor="start" x="283.691" y="-329.12" font-family="Times,serif" font-size="14.00">update</text>
<polyline fill="none" stroke="black" points="275.691,-322.32 423.118,-322.32 "/>
<polyline fill="none" stroke="black" points="275.691,-298.32 423.118,-298.32 "/>
<text text-anchor="start" x="283.691" y="-283.12" font-family="Times,serif" font-size="14.00">_layout</text>
</g>
<!-- Devise::RegistrationsController -->
<g id="node9" class="node"><title>Devise::RegistrationsController</title>
<ellipse fill="none" stroke="black" cx="570.694" cy="-328.319" rx="122.695" ry="18"/>
<text text-anchor="middle" x="570.694" y="-324.119" font-family="Times,serif" font-size="14.00">Devise::RegistrationsController</text>
</g>
<!-- Devise::RegistrationsController&#45;&gt;RegistrationsController -->
<g id="edge3" class="edge"><title>Devise::RegistrationsController&#45;&gt;RegistrationsController</title>
<path fill="none" stroke="black" d="M448.077,-328.32C439.6,-328.32 431.219,-328.32 423.135,-328.32"/>
</g>
</g>
</svg>
