<?xml version="1.0" encoding="UTF-8" standalone="no"?>
<!DOCTYPE svg PUBLIC "-//W3C//DTD SVG 1.1//EN"
 "http://www.w3.org/Graphics/SVG/1.1/DTD/svg11.dtd">
<!-- Generated by graphviz version 2.38.0 (20140413.2041)
 -->
<!-- Title: models_diagram Pages: 1 -->
<svg width="497pt" height="858pt"
 viewBox="0.00 0.00 496.97 858.00" xmlns="http://www.w3.org/2000/svg" xmlns:xlink="http://www.w3.org/1999/xlink">
<g id="graph0" class="graph" transform="scale(1 1) rotate(0) translate(4 854)">
<title>models_diagram</title>
<polygon fill="white" stroke="none" points="-4,4 -4,-854 492.966,-854 492.966,4 -4,4"/>
<!-- _diagram_info -->
<g id="node1" class="node"><title>_diagram_info</title>
<text text-anchor="start" x="8" y="-835.6" font-family="Times,serif" font-size="13.00">Models diagram</text>
<text text-anchor="start" x="8" y="-822.6" font-family="Times,serif" font-size="13.00">Date: Sep 18 2014 &#45; 11:22</text>
<text text-anchor="start" x="8" y="-809.6" font-family="Times,serif" font-size="13.00">Migration version: 20140915171704</text>
<text text-anchor="start" x="8" y="-796.6" font-family="Times,serif" font-size="13.00">Generated by RailRoady 1.1.1</text>
<text text-anchor="start" x="8" y="-783.6" font-family="Times,serif" font-size="13.00">http://railroady.prestonlee.com</text>
</g>
<!-- League -->
<g id="node2" class="node"><title>League</title>
<path fill="none" stroke="black" d="M204.182,-639.5C204.182,-639.5 313.193,-639.5 313.193,-639.5 319.193,-639.5 325.193,-645.5 325.193,-651.5 325.193,-651.5 325.193,-727.5 325.193,-727.5 325.193,-733.5 319.193,-739.5 313.193,-739.5 313.193,-739.5 204.182,-739.5 204.182,-739.5 198.182,-739.5 192.182,-733.5 192.182,-727.5 192.182,-727.5 192.182,-651.5 192.182,-651.5 192.182,-645.5 198.182,-639.5 204.182,-639.5"/>
<text text-anchor="middle" x="258.688" y="-724.3" font-family="Times,serif" font-size="14.00">League</text>
<polyline fill="none" stroke="black" points="192.182,-717.5 325.193,-717.5 "/>
<text text-anchor="start" x="200.182" y="-702.3" font-family="Times,serif" font-size="14.00">id :integer</text>
<text text-anchor="start" x="200.182" y="-688.3" font-family="Times,serif" font-size="14.00">name :string</text>
<text text-anchor="start" x="200.182" y="-674.3" font-family="Times,serif" font-size="14.00">location :string</text>
<text text-anchor="start" x="200.182" y="-660.3" font-family="Times,serif" font-size="14.00">created_at :datetime</text>
<text text-anchor="start" x="200.182" y="-646.3" font-family="Times,serif" font-size="14.00">updated_at :datetime</text>
</g>
<!-- Team -->
<g id="node3" class="node"><title>Team</title>
<path fill="none" stroke="black" d="M204.182,-417.5C204.182,-417.5 313.193,-417.5 313.193,-417.5 319.193,-417.5 325.193,-423.5 325.193,-429.5 325.193,-429.5 325.193,-589.5 325.193,-589.5 325.193,-595.5 319.193,-601.5 313.193,-601.5 313.193,-601.5 204.182,-601.5 204.182,-601.5 198.182,-601.5 192.182,-595.5 192.182,-589.5 192.182,-589.5 192.182,-429.5 192.182,-429.5 192.182,-423.5 198.182,-417.5 204.182,-417.5"/>
<text text-anchor="middle" x="258.688" y="-586.3" font-family="Times,serif" font-size="14.00">Team</text>
<polyline fill="none" stroke="black" points="192.182,-579.5 325.193,-579.5 "/>
<text text-anchor="start" x="200.182" y="-564.3" font-family="Times,serif" font-size="14.00">id :integer</text>
<text text-anchor="start" x="200.182" y="-550.3" font-family="Times,serif" font-size="14.00">name :string</text>
<text text-anchor="start" x="200.182" y="-536.3" font-family="Times,serif" font-size="14.00">crest :string</text>
<text text-anchor="start" x="200.182" y="-522.3" font-family="Times,serif" font-size="14.00">location :string</text>
<text text-anchor="start" x="200.182" y="-508.3" font-family="Times,serif" font-size="14.00">league_id :integer</text>
<text text-anchor="start" x="200.182" y="-494.3" font-family="Times,serif" font-size="14.00">wins :integer</text>
<text text-anchor="start" x="200.182" y="-480.3" font-family="Times,serif" font-size="14.00">losses :integer</text>
<text text-anchor="start" x="200.182" y="-466.3" font-family="Times,serif" font-size="14.00">points :integer</text>
<text text-anchor="start" x="200.182" y="-452.3" font-family="Times,serif" font-size="14.00">created_at :datetime</text>
<text text-anchor="start" x="200.182" y="-438.3" font-family="Times,serif" font-size="14.00">updated_at :datetime</text>
<text text-anchor="start" x="200.182" y="-424.3" font-family="Times,serif" font-size="14.00">draws :integer</text>
</g>
<!-- League&#45;&gt;Team -->
<g id="edge1" class="edge"><title>League&#45;&gt;Team</title>
<path fill="none" stroke="#56fcbf" d="M258.688,-631.249C258.688,-625.056 258.688,-618.626 258.688,-612.104"/>
<ellipse fill="none" stroke="#56fcbf" cx="258.688" cy="-635.39" rx="4" ry="4"/>
<polygon fill="#56fcbf" stroke="#56fcbf" points="258.688,-611.8 263.188,-601.8 258.688,-606.8 258.688,-601.8 258.688,-601.8 258.688,-601.8 258.688,-606.8 254.188,-601.8 258.688,-611.8 258.688,-611.8"/>
</g>
<!-- Team&#45;&gt;Team -->
<g id="edge6" class="edge"><title>Team&#45;&gt;Team</title>
<path fill="none" stroke="#167c1b" d="M334.529,-524.61C339.909,-521.177 343.193,-516.14 343.193,-509.5 343.193,-502.86 339.909,-497.823 334.529,-494.39"/>
<polygon fill="#167c1b" stroke="#167c1b" points="334.507,-524.62 323.544,-524.345 329.897,-526.557 325.287,-528.494 325.287,-528.494 325.287,-528.494 329.897,-526.557 327.031,-532.642 334.507,-524.62 334.507,-524.62"/>
<polygon fill="#167c1b" stroke="#167c1b" points="334.507,-494.38 327.031,-486.358 329.897,-492.443 325.287,-490.506 325.287,-490.506 325.287,-490.506 329.897,-492.443 323.544,-494.655 334.507,-494.38 334.507,-494.38"/>
</g>
<!-- TeamMatch -->
<g id="node4" class="node"><title>TeamMatch</title>
<path fill="none" stroke="black" d="M133.686,-77.5C133.686,-77.5 249.69,-77.5 249.69,-77.5 255.69,-77.5 261.69,-83.5 261.69,-89.5 261.69,-89.5 261.69,-277.5 261.69,-277.5 261.69,-283.5 255.69,-289.5 249.69,-289.5 249.69,-289.5 133.686,-289.5 133.686,-289.5 127.686,-289.5 121.686,-283.5 121.686,-277.5 121.686,-277.5 121.686,-89.5 121.686,-89.5 121.686,-83.5 127.686,-77.5 133.686,-77.5"/>
<text text-anchor="middle" x="191.688" y="-274.3" font-family="Times,serif" font-size="14.00">TeamMatch</text>
<polyline fill="none" stroke="black" points="121.686,-267.5 261.69,-267.5 "/>
<text text-anchor="start" x="129.686" y="-252.3" font-family="Times,serif" font-size="14.00">id :integer</text>
<text text-anchor="start" x="129.686" y="-238.3" font-family="Times,serif" font-size="14.00">team_a_id :integer</text>
<text text-anchor="start" x="129.686" y="-224.3" font-family="Times,serif" font-size="14.00">team_b_id :integer</text>
<text text-anchor="start" x="129.686" y="-210.3" font-family="Times,serif" font-size="14.00">status :boolean</text>
<text text-anchor="start" x="129.686" y="-196.3" font-family="Times,serif" font-size="14.00">title :string</text>
<text text-anchor="start" x="129.686" y="-182.3" font-family="Times,serif" font-size="14.00">location :string</text>
<text text-anchor="start" x="129.686" y="-168.3" font-family="Times,serif" font-size="14.00">result :integer</text>
<text text-anchor="start" x="129.686" y="-154.3" font-family="Times,serif" font-size="14.00">created_at :datetime</text>
<text text-anchor="start" x="129.686" y="-140.3" font-family="Times,serif" font-size="14.00">updated_at :datetime</text>
<text text-anchor="start" x="129.686" y="-126.3" font-family="Times,serif" font-size="14.00">team_a_score :integer</text>
<text text-anchor="start" x="129.686" y="-112.3" font-family="Times,serif" font-size="14.00">team_b_score :integer</text>
<text text-anchor="start" x="129.686" y="-98.3" font-family="Times,serif" font-size="14.00">date :date</text>
<text text-anchor="start" x="129.686" y="-84.3" font-family="Times,serif" font-size="14.00">time :time</text>
</g>
<!-- Team&#45;&gt;TeamMatch -->
<g id="edge4" class="edge"><title>Team&#45;&gt;TeamMatch</title>
<path fill="none" stroke="#b43e1d" d="M208.821,-409.674C207.673,-406.106 206.622,-402.542 205.688,-399 197.34,-367.362 193.068,-332.234 191.059,-299.718"/>
<ellipse fill="none" stroke="#b43e1d" cx="210.191" cy="-413.696" rx="4.00001" ry="4.00001"/>
<polygon fill="#b43e1d" stroke="#b43e1d" points="191.058,-299.702 195,-289.469 190.782,-294.709 190.506,-289.717 190.506,-289.717 190.506,-289.717 190.782,-294.709 186.013,-289.965 191.058,-299.702 191.058,-299.702"/>
</g>
<!-- Team&#45;&gt;TeamMatch -->
<g id="edge5" class="edge"><title>Team&#45;&gt;TeamMatch</title>
<path fill="none" stroke="#dca616" d="M227.737,-409.544C226.846,-405.995 225.995,-402.472 225.198,-399 217.834,-366.958 211.598,-331.849 206.576,-299.483"/>
<ellipse fill="none" stroke="#dca616" cx="228.751" cy="-413.474" rx="4.00001" ry="4.00001"/>
<polygon fill="#dca616" stroke="#dca616" points="206.566,-299.418 209.505,-288.853 205.811,-294.475 205.057,-289.532 205.057,-289.532 205.057,-289.532 205.811,-294.475 200.608,-290.212 206.566,-299.418 206.566,-299.418"/>
<text text-anchor="middle" x="288.433" y="-387.8" font-family="Times,serif" font-size="14.00">reverse_team_matches</text>
</g>
<!-- User -->
<g id="node5" class="node"><title>User</title>
<path fill="none" stroke="black" d="M296.41,-0.5C296.41,-0.5 476.966,-0.5 476.966,-0.5 482.966,-0.5 488.966,-6.5 488.966,-12.5 488.966,-12.5 488.966,-354.5 488.966,-354.5 488.966,-360.5 482.966,-366.5 476.966,-366.5 476.966,-366.5 296.41,-366.5 296.41,-366.5 290.41,-366.5 284.41,-360.5 284.41,-354.5 284.41,-354.5 284.41,-12.5 284.41,-12.5 284.41,-6.5 290.41,-0.5 296.41,-0.5"/>
<text text-anchor="middle" x="386.688" y="-351.3" font-family="Times,serif" font-size="14.00">User</text>
<polyline fill="none" stroke="black" points="284.41,-344.5 488.966,-344.5 "/>
<text text-anchor="start" x="292.41" y="-329.3" font-family="Times,serif" font-size="14.00">id :integer</text>
<text text-anchor="start" x="292.41" y="-315.3" font-family="Times,serif" font-size="14.00">email :string</text>
<text text-anchor="start" x="292.41" y="-301.3" font-family="Times,serif" font-size="14.00">encrypted_password :string</text>
<text text-anchor="start" x="292.41" y="-287.3" font-family="Times,serif" font-size="14.00">reset_password_token :string</text>
<text text-anchor="start" x="292.41" y="-273.3" font-family="Times,serif" font-size="14.00">reset_password_sent_at :datetime</text>
<text text-anchor="start" x="292.41" y="-259.3" font-family="Times,serif" font-size="14.00">remember_created_at :datetime</text>
<text text-anchor="start" x="292.41" y="-245.3" font-family="Times,serif" font-size="14.00">sign_in_count :integer</text>
<text text-anchor="start" x="292.41" y="-231.3" font-family="Times,serif" font-size="14.00">current_sign_in_at :datetime</text>
<text text-anchor="start" x="292.41" y="-217.3" font-family="Times,serif" font-size="14.00">last_sign_in_at :datetime</text>
<text text-anchor="start" x="292.41" y="-203.3" font-family="Times,serif" font-size="14.00">current_sign_in_ip :string</text>
<text text-anchor="start" x="292.41" y="-189.3" font-family="Times,serif" font-size="14.00">last_sign_in_ip :string</text>
<text text-anchor="start" x="292.41" y="-175.3" font-family="Times,serif" font-size="14.00">confirmation_token :string</text>
<text text-anchor="start" x="292.41" y="-161.3" font-family="Times,serif" font-size="14.00">confirmed_at :datetime</text>
<text text-anchor="start" x="292.41" y="-147.3" font-family="Times,serif" font-size="14.00">confirmation_sent_at :datetime</text>
<text text-anchor="start" x="292.41" y="-133.3" font-family="Times,serif" font-size="14.00">unconfirmed_email :string</text>
<text text-anchor="start" x="292.41" y="-119.3" font-family="Times,serif" font-size="14.00">created_at :datetime</text>
<text text-anchor="start" x="292.41" y="-105.3" font-family="Times,serif" font-size="14.00">updated_at :datetime</text>
<text text-anchor="start" x="292.41" y="-91.3" font-family="Times,serif" font-size="14.00">name :string</text>
<text text-anchor="start" x="292.41" y="-77.3" font-family="Times,serif" font-size="14.00">image :string</text>
<text text-anchor="start" x="292.41" y="-63.3" font-family="Times,serif" font-size="14.00">team_id :integer</text>
<text text-anchor="start" x="292.41" y="-49.3" font-family="Times,serif" font-size="14.00">position :string</text>
<text text-anchor="start" x="292.41" y="-35.3" font-family="Times,serif" font-size="14.00">dob :date</text>
<text text-anchor="start" x="292.41" y="-21.3" font-family="Times,serif" font-size="14.00">height :float</text>
<text text-anchor="start" x="292.41" y="-7.3" font-family="Times,serif" font-size="14.00">location :string</text>
</g>
<!-- Team&#45;&gt;User -->
<g id="edge3" class="edge"><title>Team&#45;&gt;User</title>
<path fill="none" stroke="#c1848b" d="M330.13,-436.073C338.837,-424.372 346.741,-411.855 352.688,-399 356.092,-391.641 359.165,-384.004 361.937,-376.189"/>
<ellipse fill="none" stroke="#c1848b" cx="327.65" cy="-439.312" rx="4.00002" ry="4.00002"/>
<polygon fill="#c1848b" stroke="#c1848b" points="361.983,-376.052 369.437,-368.008 363.577,-371.312 365.171,-366.573 365.171,-366.573 365.171,-366.573 363.577,-371.312 360.906,-365.139 361.983,-376.052 361.983,-376.052"/>
</g>
<!-- ActiveRecord::Base -->
<g id="node6" class="node"><title>ActiveRecord::Base</title>
<ellipse fill="none" stroke="black" cx="306.688" cy="-813.5" rx="81.1422" ry="18"/>
<text text-anchor="middle" x="306.688" y="-809.3" font-family="Times,serif" font-size="14.00">ActiveRecord::Base</text>
</g>
<!-- ActiveRecord::Base&#45;&gt;League -->
<g id="edge2" class="edge"><title>ActiveRecord::Base&#45;&gt;League</title>
<path fill="none" stroke="black" d="M300.014,-795.536C294.321,-781.067 285.843,-759.519 278.045,-739.699"/>
</g>
<!-- ActiveRecord::Base&#45;&gt;Team -->
<g id="edge7" class="edge"><title>ActiveRecord::Base&#45;&gt;Team</title>
<path fill="none" stroke="black" d="M315.343,-795.449C322.123,-781.082 331.004,-759.764 334.688,-740 342.913,-695.871 346.533,-682.298 334.688,-639 331.234,-626.375 326.185,-613.73 320.305,-601.565"/>
</g>
<!-- ActiveRecord::Base&#45;&gt;TeamMatch -->
<g id="edge8" class="edge"><title>ActiveRecord::Base&#45;&gt;TeamMatch</title>
<path fill="none" stroke="black" d="M260.374,-798.545C232.511,-787.49 199.316,-768.985 182.688,-740 102.771,-600.701 130.616,-407.619 159.853,-289.638"/>
</g>
<!-- ActiveRecord::Base&#45;&gt;User -->
<g id="edge9" class="edge"><title>ActiveRecord::Base&#45;&gt;User</title>
<path fill="none" stroke="black" d="M321.506,-795.792C332.609,-781.958 346.708,-761.2 351.688,-740 380.443,-617.589 389.008,-476.097 390.48,-366.549"/>
</g>
</g>
</svg>
