<?xml version="1.0" encoding="UTF-8" standalone="no"?>
<!DOCTYPE svg PUBLIC "-//W3C//DTD SVG 1.1//EN"
 "http://www.w3.org/Graphics/SVG/1.1/DTD/svg11.dtd">
<!-- Generated by graphviz version 2.38.0 (20140413.2041)
 -->
<!-- Title: models_diagram Pages: 1 -->
<svg width="458pt" height="313pt"
 viewBox="0.00 0.00 457.69 313.00" xmlns="http://www.w3.org/2000/svg" xmlns:xlink="http://www.w3.org/1999/xlink">
<g id="graph0" class="graph" transform="scale(1 1) rotate(0) translate(4 309)">
<title>models_diagram</title>
<polygon fill="white" stroke="none" points="-4,4 -4,-309 453.688,-309 453.688,4 -4,4"/>
<!-- _diagram_info -->
<g id="node1" class="node"><title>_diagram_info</title>
<text text-anchor="start" x="8" y="-290.6" font-family="Times,serif" font-size="13.00">Models diagram</text>
<text text-anchor="start" x="8" y="-277.6" font-family="Times,serif" font-size="13.00">Date: Sep 18 2014 &#45; 11:22</text>
<text text-anchor="start" x="8" y="-264.6" font-family="Times,serif" font-size="13.00">Migration version: 20140915171704</text>
<text text-anchor="start" x="8" y="-251.6" font-family="Times,serif" font-size="13.00">Generated by RailRoady 1.1.1</text>
<text text-anchor="start" x="8" y="-238.6" font-family="Times,serif" font-size="13.00">http://railroady.prestonlee.com</text>
</g>
<!-- League -->
<g id="node2" class="node"><title>League</title>
<ellipse fill="none" stroke="black" cx="274.688" cy="-177" rx="36.2558" ry="18"/>
<text text-anchor="middle" x="274.688" y="-172.8" font-family="Times,serif" font-size="14.00">League</text>
</g>
<!-- Team -->
<g id="node3" class="node"><title>Team</title>
<ellipse fill="none" stroke="black" cx="274.688" cy="-104" rx="29.7411" ry="18"/>
<text text-anchor="middle" x="274.688" y="-99.8" font-family="Times,serif" font-size="14.00">Team</text>
</g>
<!-- League&#45;&gt;Team -->
<g id="edge1" class="edge"><title>League&#45;&gt;Team</title>
<path fill="none" stroke="#1cb1e5" d="M274.688,-150.791C274.688,-144.832 274.688,-138.45 274.688,-132.399"/>
<ellipse fill="none" stroke="#1cb1e5" cx="274.688" cy="-154.813" rx="4" ry="4"/>
<polygon fill="#1cb1e5" stroke="#1cb1e5" points="274.688,-132.029 279.188,-122.029 274.688,-127.029 274.688,-122.029 274.688,-122.029 274.688,-122.029 274.688,-127.029 270.188,-122.029 274.688,-132.029 274.688,-132.029"/>
</g>
<!-- Team&#45;&gt;Team -->
<g id="edge6" class="edge"><title>Team&#45;&gt;Team</title>
<path fill="none" stroke="#a9d699" d="M312.75,-110.131C318.449,-109.181 322.308,-107.138 322.308,-104 322.308,-100.862 318.449,-98.8185 312.75,-97.8686"/>
<polygon fill="#a9d699" stroke="#a9d699" points="312.552,-110.143 302.307,-106.231 307.56,-110.433 302.568,-110.724 302.568,-110.724 302.568,-110.724 307.56,-110.433 302.83,-115.216 312.552,-110.143 312.552,-110.143"/>
<polygon fill="#a9d699" stroke="#a9d699" points="312.552,-97.8572 302.83,-92.784 307.56,-97.5668 302.568,-97.2764 302.568,-97.2764 302.568,-97.2764 307.56,-97.5668 302.307,-101.769 312.552,-97.8572 312.552,-97.8572"/>
</g>
<!-- TeamMatch -->
<g id="node4" class="node"><title>TeamMatch</title>
<ellipse fill="none" stroke="black" cx="235.688" cy="-18" rx="52.4261" ry="18"/>
<text text-anchor="middle" x="235.688" y="-13.8" font-family="Times,serif" font-size="14.00">TeamMatch</text>
</g>
<!-- Team&#45;&gt;TeamMatch -->
<g id="edge4" class="edge"><title>Team&#45;&gt;TeamMatch</title>
<path fill="none" stroke="#fda6a5" d="M257.269,-80.9903C254.473,-76.827 251.807,-72.3952 249.688,-68 246.397,-61.175 243.741,-53.4326 241.664,-46.1505"/>
<ellipse fill="none" stroke="#fda6a5" cx="259.708" cy="-84.4275" rx="4.00002" ry="4.00002"/>
<polygon fill="#fda6a5" stroke="#fda6a5" points="241.621,-45.9847 243.462,-35.1744 240.364,-41.1453 239.106,-36.3059 239.106,-36.3059 239.106,-36.3059 240.364,-41.1453 234.751,-37.4375 241.621,-45.9847 241.621,-45.9847"/>
</g>
<!-- Team&#45;&gt;TeamMatch -->
<g id="edge5" class="edge"><title>Team&#45;&gt;TeamMatch</title>
<path fill="none" stroke="#3a82db" d="M263.598,-79.1136C258.688,-68.5389 252.898,-56.0691 247.869,-45.236"/>
<ellipse fill="none" stroke="#3a82db" cx="265.298" cy="-82.7763" rx="4.00002" ry="4.00002"/>
<polygon fill="#3a82db" stroke="#3a82db" points="247.722,-44.9188 247.592,-33.9537 245.616,-40.3838 243.51,-35.8487 243.51,-35.8487 243.51,-35.8487 245.616,-40.3838 239.429,-37.7438 247.722,-44.9188 247.722,-44.9188"/>
<text text-anchor="middle" x="320.433" y="-56.8" font-family="Times,serif" font-size="14.00">reverse_team_matches</text>
</g>
<!-- User -->
<g id="node5" class="node"><title>User</title>
<ellipse fill="none" stroke="black" cx="422.688" cy="-18" rx="27" ry="18"/>
<text text-anchor="middle" x="422.688" y="-13.8" font-family="Times,serif" font-size="14.00">User</text>
</g>
<!-- Team&#45;&gt;User -->
<g id="edge3" class="edge"><title>Team&#45;&gt;User</title>
<path fill="none" stroke="#f97b26" d="M311.454,-97.8211C334.982,-93.0877 365.198,-84.2414 387.688,-68 396.368,-61.7312 403.705,-52.6351 409.384,-43.9776"/>
<ellipse fill="none" stroke="#f97b26" cx="307.366" cy="-98.5899" rx="4.00001" ry="4.00001"/>
<polygon fill="#f97b26" stroke="#f97b26" points="409.495,-43.7961 418.534,-37.5886 412.092,-39.5236 414.689,-35.2511 414.689,-35.2511 414.689,-35.2511 412.092,-39.5236 410.844,-32.9135 409.495,-43.7961 409.495,-43.7961"/>
</g>
<!-- ActiveRecord::Base -->
<g id="node6" class="node"><title>ActiveRecord::Base</title>
<ellipse fill="none" stroke="black" cx="306.688" cy="-268.5" rx="81.1422" ry="18"/>
<text text-anchor="middle" x="306.688" y="-264.3" font-family="Times,serif" font-size="14.00">ActiveRecord::Base</text>
</g>
<!-- ActiveRecord::Base&#45;&gt;League -->
<g id="edge2" class="edge"><title>ActiveRecord::Base&#45;&gt;League</title>
<path fill="none" stroke="black" d="M300.518,-250.243C294.815,-234.293 286.392,-210.735 280.73,-194.9"/>
</g>
<!-- ActiveRecord::Base&#45;&gt;Team -->
<g id="edge7" class="edge"><title>ActiveRecord::Base&#45;&gt;Team</title>
<path fill="none" stroke="black" d="M313.425,-250.412C320.996,-228.561 330.861,-189.86 319.688,-159 314.038,-143.395 301.691,-129.13 291.357,-119.185"/>
</g>
<!-- ActiveRecord::Base&#45;&gt;TeamMatch -->
<g id="edge8" class="edge"><title>ActiveRecord::Base&#45;&gt;TeamMatch</title>
<path fill="none" stroke="black" d="M280.63,-251.413C262.587,-238.624 240.027,-218.935 229.688,-195 206.35,-140.971 221.503,-68.6804 230.456,-36.1416"/>
</g>
<!-- ActiveRecord::Base&#45;&gt;User -->
<g id="edge9" class="edge"><title>ActiveRecord::Base&#45;&gt;User</title>
<path fill="none" stroke="black" d="M316.958,-250.452C336.953,-216.672 381.523,-138.407 408.688,-68 412.7,-57.5996 416.155,-45.5669 418.628,-36.0282"/>
</g>
</g>
</svg>
